<svg width="155.6" height="68.2" viewBox="0 0 155.6 68.2" xmlns="http://www.w3.org/2000/svg"><g id="svgGroup" stroke-linecap="round" fill-rule="evenodd" font-size="9pt" stroke="#000" stroke-width="0.25mm" fill="#000" style="stroke:#000;stroke-width:0.25mm;fill:#000"><path d="M 109.3 68.2 L 108.6 68.2 L 84.1 9.3 L 81.8 58.4 A 14.708 14.708 0 0 0 81.793 58.751 Q 81.773 61.072 82.543 62.118 A 2.163 2.163 0 0 0 82.9 62.5 Q 84.013 63.428 87.621 64.183 A 43.113 43.113 0 0 0 88.2 64.3 L 94.4 65.5 L 94.4 67.3 L 66.5 67.3 L 66.5 65.5 L 72.6 64.3 Q 75.4 63.7 76.7 63.15 A 4.066 4.066 0 0 0 77.525 62.69 A 2.743 2.743 0 0 0 78.45 61.55 A 4.929 4.929 0 0 0 78.694 60.802 Q 78.931 59.852 79 58.4 L 81.1 9.4 A 13.632 13.632 0 0 0 81.125 8.804 Q 81.157 7.046 80.684 5.895 A 3.6 3.6 0 0 0 80 4.8 A 4.345 4.345 0 0 0 78.994 4.024 Q 77.516 3.164 74.7 2.6 L 70.5 1.8 L 70.5 0 L 89.7 0 L 112 52.1 L 133.8 0 L 154.2 0 L 154.2 1.8 L 148.2 2.8 Q 144.2 3.5 142.95 4.8 A 3.369 3.369 0 0 0 142.268 5.898 Q 141.741 7.213 141.798 9.438 A 17.836 17.836 0 0 0 141.8 9.5 L 143.1 58.5 A 20.507 20.507 0 0 0 143.186 59.659 Q 143.3 60.746 143.523 61.47 A 4.887 4.887 0 0 0 143.6 61.7 A 2.48 2.48 0 0 0 144.489 62.859 Q 144.826 63.108 145.271 63.297 A 4.983 4.983 0 0 0 145.4 63.35 A 12.214 12.214 0 0 0 146.374 63.681 Q 147.623 64.053 149.5 64.4 L 155.6 65.5 L 155.6 67.3 L 123.6 67.3 L 123.6 65.5 L 130.6 64.2 A 11.473 11.473 0 0 0 131.487 63.989 Q 132.745 63.631 133.2 63.1 A 2.048 2.048 0 0 0 133.554 62.481 Q 133.767 61.913 133.796 61.068 A 7.934 7.934 0 0 0 133.8 60.8 L 132.8 11.2 L 109.3 68.2 Z M 34.1 67.3 L 0.1 67.3 L 0.1 65.5 L 6.2 64.4 A 36.279 36.279 0 0 0 7.853 64.041 Q 10.228 63.461 11.208 62.786 A 2.699 2.699 0 0 0 11.45 62.6 A 2.556 2.556 0 0 0 12.081 61.718 Q 12.471 60.864 12.568 59.473 A 14.059 14.059 0 0 0 12.6 58.5 L 12.6 10.1 A 29.061 29.061 0 0 0 12.569 8.703 Q 12.501 7.307 12.288 6.391 A 5.33 5.33 0 0 0 12.1 5.75 Q 11.6 4.4 9.9 3.8 Q 8.603 3.343 6.143 2.885 A 72.26 72.26 0 0 0 4.5 2.6 L 0 1.8 L 0 0 L 31.8 0 A 48.479 48.479 0 0 1 38.573 0.45 Q 42.669 1.028 46.1 2.35 A 26.56 26.56 0 0 1 50.921 4.761 A 19.547 19.547 0 0 1 55.6 8.9 Q 59 13.1 59 18.7 A 18.049 18.049 0 0 1 58.583 22.666 A 14.087 14.087 0 0 1 57.1 26.55 Q 55.2 29.9 52.1 32.15 Q 49 34.4 45.3 35.6 Q 41.6 36.8 37.9 36.95 Q 35.661 37.041 33.714 36.784 A 17.883 17.883 0 0 1 31.3 36.3 L 31.4 35.6 A 27.809 27.809 0 0 0 37.094 34.662 A 23.864 23.864 0 0 0 40 33.65 Q 43.9 32 46.3 28.35 Q 48.302 25.306 48.634 20.628 A 27.218 27.218 0 0 0 48.7 18.7 Q 48.7 9.9 43.75 6.15 A 17.064 17.064 0 0 0 38.125 3.405 Q 34.651 2.4 30.2 2.4 L 21.6 2.4 L 21.6 58.5 Q 21.6 61.6 22.75 62.6 Q 23.817 63.528 27.421 64.283 A 42.514 42.514 0 0 0 28 64.4 L 34.1 65.5 L 34.1 67.3 Z" vector-effect="non-scaling-stroke"/></g></svg>